<svg xmlns="http://www.w3.org/2000/svg" version="1.1" xmlns:xlink="http://www.w3.org/1999/xlink" xmlns:svgjs="http://svgjs.dev/svgjs" width="2200" height="800" preserveAspectRatio="none" viewBox="0 0 2200 800"><g mask="url(&quot;#SvgjsMask1034&quot;)" fill="none"><path d="M1537.97-10.36C1317.49 83.59 1413.13 768.48 983.87 771.95 554.61 775.42 166.32 424.14-124.34 419.95" stroke="rgba(255, 255, 255, 0.58)" stroke-width="2"></path><path d="M2110.36-154.43C1899.39-133.5 1769.57 313.07 1404.87 316.14 1040.18 319.21 1052.13 216.14 699.39 216.14 346.64 216.14 172.03 315.89-6.1 316.14" stroke="rgba(255, 255, 255, 0.58)" stroke-width="2"></path><path d="M1956.17-143.68C1667.21-126.62 1448.74 404.78 936.59 405.01 424.43 405.24 186.61 57.92-83 53.01" stroke="rgba(255, 255, 255, 0.58)" stroke-width="2"></path><path d="M1253.21-22.89C1069.52 42.57 1146.01 585.18 769.35 588.92 392.69 592.66 49.07 382.09-198.38 380.92" stroke="rgba(255, 255, 255, 0.58)" stroke-width="2"></path><path d="M1785.51-41.54C1594.15-14.07 1495.91 432.16 1177.66 436.49 859.41 440.82 873.74 336.49 569.82 336.49 265.89 336.49 115.97 436.16-38.03 436.49" stroke="rgba(255, 255, 255, 0.58)" stroke-width="2"></path></g><defs><mask id="SvgjsMask1034"><rect width="2200" height="800" fill="#ffffff"></rect></mask></defs></svg>